<svg width="24" height="19" viewBox="0 0 24 19" fill="none" xmlns="http://www.w3.org/2000/svg">
<path d="M8.00005 12.65L19.9 0.750049C20.4 0.283382 20.95 0.0500488 21.55 0.0500488C22.15 0.0500488 22.7 0.283382 23.2 0.750049C23.7 1.25005 23.95 1.80838 23.95 2.42505C23.95 3.04172 23.7 3.60005 23.2 4.10005L9.70005 17.6501C9.23338 18.1167 8.66672 18.3501 8.00005 18.3501C7.33338 18.3501 6.76672 18.1167 6.30005 17.6501L0.750049 12.1C0.283382 11.6 0.0500488 11.0417 0.0500488 10.425C0.0500488 9.80838 0.300049 9.25005 0.800049 8.75005C1.30005 8.28338 1.85838 8.05005 2.47505 8.05005C3.09172 8.05005 3.65005 8.28338 4.15005 8.75005L8.00005 12.65Z" fill="#B6ABFF"/>
</svg>
